<svg width="24" height="25" viewBox="0 0 24 25" fill="none" xmlns="http://www.w3.org/2000/svg"><path d="M23.04.325H.96a.958.958 0 00-.96.959v22.05c0 .53.429.959.96.959h22.08c.531 0 .96-.429.96-.96V1.284a.958.958 0 00-.96-.958zM7.119 20.748H3.558V9.31h3.561v11.438zM5.34 7.746a2.066 2.066 0 01-1.907-1.272 2.059 2.059 0 011.504-2.81 2.067 2.067 0 012.12.876A2.06 2.06 0 015.34 7.746zm15.111 13.002h-3.558v-5.563c0-1.327-.024-3.032-1.851-3.032-1.851 0-2.136 1.444-2.136 2.936v5.66H9.351V9.308h3.414v1.565h.048c.474-.899 1.635-1.849 3.369-1.849 3.606 0 4.269 2.37 4.269 5.45v6.273z" fill="#fff"/></svg>