<svg width="29" height="25" viewBox="0 0 29 25" fill="none" xmlns="http://www.w3.org/2000/svg"><path d="M29 3.164a12.16 12.16 0 01-2.972 3.126 17.612 17.612 0 01-2.803 10.302 18.295 18.295 0 01-3.407 3.941c-1.317 1.145-2.9 2.058-4.75 2.738-1.85.681-3.833 1.021-5.948 1.021-3.301 0-6.341-.906-9.12-2.72.493.056.966.084 1.42.084 2.757 0 5.22-.864 7.389-2.593a5.707 5.707 0 01-3.455-1.208 5.948 5.948 0 01-2.1-2.995 5.875 5.875 0 002.686-.102c-1.372-.28-2.51-.974-3.415-2.086-.904-1.11-1.357-2.393-1.357-3.847V8.75a5.79 5.79 0 002.696.757A5.983 5.983 0 011.93 7.35a5.99 5.99 0 01-.714-2.878A6.03 6.03 0 012.02 1.43a16.995 16.995 0 005.425 4.467 16.312 16.312 0 006.837 1.858c-.104-.44-.156-.9-.156-1.378 0-1.67.58-3.096 1.743-4.279C17.03.916 18.433.325 20.075.325c1.719 0 3.166.637 4.343 1.91a11.726 11.726 0 003.777-1.47c-.452 1.448-1.323 2.564-2.613 3.35A11.74 11.74 0 0029 3.165z" fill="#fff"/></svg>